<mxfile host="app.diagrams.net" modified="2024-05-14T18:27:45.959Z" agent="Mozilla/5.0 (Windows NT 10.0; Win64; x64) AppleWebKit/537.36 (KHTML, like Gecko) Chrome/122.0.0.0 Safari/537.36" etag="SxOXMh8Pk6kswhfqEI3L" version="24.2.5" type="device">
  <diagram name="Page-1" id="929967ad-93f9-6ef4-fab6-5d389245f69c">
    <mxGraphModel dx="1400" dy="696" grid="1" gridSize="10" guides="1" tooltips="1" connect="1" arrows="1" fold="1" page="1" pageScale="1.5" pageWidth="1169" pageHeight="826" background="none" math="0" shadow="0">
      <root>
        <mxCell id="0" style=";html=1;" />
        <mxCell id="1" style=";html=1;" parent="0" />
        <mxCell id="1672d66443f91eb5-1" value="2" style="html=1;strokeWidth=1;shape=mxgraph.sysml.package;html=1;overflow=fill;whiteSpace=wrap;fillColor=none;gradientColor=none;fontSize=12;align=center;labelX=327.64;" parent="1" vertex="1">
          <mxGeometry x="340" y="280" width="1120" height="650" as="geometry" />
        </mxCell>
        <mxCell id="1672d66443f91eb5-23" value="Title" style="text;strokeColor=none;fillColor=none;html=1;fontSize=24;fontStyle=1;verticalAlign=middle;align=center;" parent="1" vertex="1">
          <mxGeometry x="120" y="40" width="1510" height="40" as="geometry" />
        </mxCell>
        <mxCell id="SkFf_toRe2xZDqIsi4C7-7" value="" style="edgeStyle=orthogonalEdgeStyle;rounded=0;orthogonalLoop=1;jettySize=auto;html=1;" parent="1" source="SkFf_toRe2xZDqIsi4C7-2" target="SkFf_toRe2xZDqIsi4C7-6" edge="1">
          <mxGeometry relative="1" as="geometry" />
        </mxCell>
        <mxCell id="SkFf_toRe2xZDqIsi4C7-10" value="" style="edgeStyle=orthogonalEdgeStyle;rounded=0;orthogonalLoop=1;jettySize=auto;html=1;" parent="1" source="SkFf_toRe2xZDqIsi4C7-2" target="SkFf_toRe2xZDqIsi4C7-8" edge="1">
          <mxGeometry relative="1" as="geometry" />
        </mxCell>
        <mxCell id="SkFf_toRe2xZDqIsi4C7-13" value="" style="edgeStyle=orthogonalEdgeStyle;rounded=0;orthogonalLoop=1;jettySize=auto;html=1;" parent="1" source="SkFf_toRe2xZDqIsi4C7-2" target="SkFf_toRe2xZDqIsi4C7-12" edge="1">
          <mxGeometry relative="1" as="geometry" />
        </mxCell>
        <mxCell id="SkFf_toRe2xZDqIsi4C7-15" value="" style="edgeStyle=orthogonalEdgeStyle;rounded=0;orthogonalLoop=1;jettySize=auto;html=1;" parent="1" source="SkFf_toRe2xZDqIsi4C7-2" target="SkFf_toRe2xZDqIsi4C7-14" edge="1">
          <mxGeometry relative="1" as="geometry" />
        </mxCell>
        <mxCell id="SkFf_toRe2xZDqIsi4C7-2" value="SISTEMA DE CONTROL DE SERVICIO SOCIAL" style="rounded=0;whiteSpace=wrap;html=1;" parent="1" vertex="1">
          <mxGeometry x="817" y="590" width="120" height="60" as="geometry" />
        </mxCell>
        <mxCell id="SkFf_toRe2xZDqIsi4C7-6" value="&quot;sistema&quot;&lt;br&gt;sistema de conteo de horas y asistencias" style="rounded=0;whiteSpace=wrap;html=1;" parent="1" vertex="1">
          <mxGeometry x="817" y="420" width="120" height="60" as="geometry" />
        </mxCell>
        <mxCell id="SkFf_toRe2xZDqIsi4C7-8" value="&quot;sistema&quot;&lt;br&gt;sistema expedientes" style="rounded=0;whiteSpace=wrap;html=1;fillColor=#d5e8d4;strokeColor=#82b366;" parent="1" vertex="1">
          <mxGeometry x="600" y="420" width="120" height="60" as="geometry" />
        </mxCell>
        <mxCell id="SkFf_toRe2xZDqIsi4C7-12" value="&quot;sistema&quot;&lt;br&gt;sistema de control de actividades" style="rounded=0;whiteSpace=wrap;html=1;" parent="1" vertex="1">
          <mxGeometry x="1030" y="410" width="120" height="60" as="geometry" />
        </mxCell>
        <mxCell id="SkFf_toRe2xZDqIsi4C7-14" value="&quot;sistema&quot;&lt;br&gt;sistema de asignaciÃ³n de asesores/encargados&amp;nbsp;" style="rounded=0;whiteSpace=wrap;html=1;" parent="1" vertex="1">
          <mxGeometry x="817" y="730" width="120" height="60" as="geometry" />
        </mxCell>
        <mxCell id="SkFf_toRe2xZDqIsi4C7-16" value="&quot;sistema&quot;&lt;br&gt;sistema de reportes" style="rounded=0;whiteSpace=wrap;html=1;" parent="1" vertex="1">
          <mxGeometry x="1030" y="730" width="120" height="60" as="geometry" />
        </mxCell>
        <mxCell id="SkFf_toRe2xZDqIsi4C7-21" value="" style="endArrow=classic;html=1;rounded=0;exitX=1;exitY=1;exitDx=0;exitDy=0;entryX=0;entryY=0;entryDx=0;entryDy=0;" parent="1" source="SkFf_toRe2xZDqIsi4C7-2" target="SkFf_toRe2xZDqIsi4C7-16" edge="1">
          <mxGeometry width="50" height="50" relative="1" as="geometry">
            <mxPoint x="960" y="730" as="sourcePoint" />
            <mxPoint x="1010" y="680" as="targetPoint" />
          </mxGeometry>
        </mxCell>
        <mxCell id="SkFf_toRe2xZDqIsi4C7-22" value="&quot;sistema&quot;&lt;br&gt;sistema de control de acceso" style="rounded=0;whiteSpace=wrap;html=1;" parent="1" vertex="1">
          <mxGeometry x="630" y="730" width="120" height="60" as="geometry" />
        </mxCell>
        <mxCell id="SkFf_toRe2xZDqIsi4C7-23" value="" style="endArrow=classic;html=1;rounded=0;exitX=0;exitY=1;exitDx=0;exitDy=0;entryX=1;entryY=0;entryDx=0;entryDy=0;" parent="1" source="SkFf_toRe2xZDqIsi4C7-2" target="SkFf_toRe2xZDqIsi4C7-22" edge="1">
          <mxGeometry width="50" height="50" relative="1" as="geometry">
            <mxPoint x="750" y="710" as="sourcePoint" />
            <mxPoint x="800" y="660" as="targetPoint" />
          </mxGeometry>
        </mxCell>
      </root>
    </mxGraphModel>
  </diagram>
</mxfile>
